<svg width="66" height="66" viewBox="0 0 66 66" fill="none" xmlns="http://www.w3.org/2000/svg">
<circle cx="33" cy="33" r="32.5" fill="white" stroke="#E6E9F4"/>
<g clip-path="url(#clip0_1_205)">
<path d="M42.2696 38.8313C41.943 39.5859 41.5564 40.2804 41.1084 40.919C40.4979 41.7896 39.9979 42.3922 39.6127 42.7268C39.0154 43.276 38.3755 43.5573 37.6903 43.5733C37.1983 43.5733 36.6051 43.4333 35.9145 43.1494C35.2217 42.8668 34.5849 42.7268 34.0028 42.7268C33.3922 42.7268 32.7373 42.8668 32.0369 43.1494C31.3354 43.4333 30.7703 43.5813 30.3382 43.596C29.6811 43.624 29.0261 43.3347 28.3723 42.7268C27.9551 42.3628 27.4331 41.7389 26.8079 40.855C26.137 39.9112 25.5855 38.8166 25.1534 37.5688C24.6907 36.221 24.4587 34.9158 24.4587 33.6523C24.4587 32.2049 24.7715 30.9565 25.3979 29.9104C25.8903 29.0701 26.5453 28.4073 27.365 27.9207C28.1848 27.4341 29.0705 27.1861 30.0244 27.1702C30.5463 27.1702 31.2307 27.3317 32.0813 27.649C32.9294 27.9673 33.474 28.1288 33.7128 28.1288C33.8913 28.1288 34.4963 27.94 35.5219 27.5636C36.4918 27.2146 37.3103 27.0701 37.9809 27.127C39.798 27.2737 41.1631 27.99 42.071 29.2805C40.4459 30.2651 39.642 31.6443 39.658 33.4135C39.6726 34.7916 40.1726 35.9384 41.1551 36.8489C41.6004 37.2715 42.0976 37.5981 42.6509 37.8301C42.5309 38.1781 42.4043 38.5113 42.2696 38.8313ZM38.1022 22.4322C38.1022 23.5123 37.7076 24.5208 36.921 25.4543C35.9718 26.564 34.8237 27.2053 33.5787 27.1041C33.5628 26.9745 33.5536 26.8381 33.5536 26.6948C33.5536 25.6579 34.005 24.5482 34.8066 23.6408C35.2069 23.1814 35.7159 22.7994 36.3331 22.4947C36.949 22.1946 37.5316 22.0285 38.0795 22.0001C38.0955 22.1445 38.1022 22.2889 38.1022 22.4322V22.4322Z" fill="black"/>
</g>
<defs>
<clipPath id="clip0_1_205">
<rect width="21.5977" height="21.5977" fill="white" transform="translate(22.6589 22)"/>
</clipPath>
</defs>
</svg>
