<svg width="66" height="66" viewBox="0 0 66 66" fill="none" xmlns="http://www.w3.org/2000/svg">
<circle cx="33" cy="33" r="32.5" stroke="#E6E9F4"/>
<path d="M40.0001 29.7041V29C40.0001 25.134 36.8661 22 33.0001 22C29.1341 22 26.0001 25.134 26.0001 29V29.7041C26.0001 30.5491 25.7499 31.3752 25.2812 32.0783L24.1326 33.8012C23.0835 35.3749 23.8844 37.5139 25.7091 38.0116C30.4826 39.3134 35.5175 39.3134 40.291 38.0116C42.1157 37.5139 42.9166 35.3749 41.8675 33.8012L40.7189 32.0783C40.2502 31.3752 40.0001 30.5491 40.0001 29.7041Z" stroke="#222322" stroke-width="1.5"/>
<path d="M28.5 39C29.155 40.7478 30.9225 42 33 42C35.0775 42 36.845 40.7478 37.5 39" stroke="#222322" stroke-width="1.5" stroke-linecap="round"/>
</svg>
