<svg width="20" height="20" viewBox="0 0 20 20" fill="none" xmlns="http://www.w3.org/2000/svg">
<path d="M13.17 3.33331H6.83001C6.05743 3.33331 5.67114 3.33331 5.35959 3.44172C4.76881 3.64728 4.30499 4.12477 4.1053 4.73295C4 5.05368 4 5.45135 4 6.24669V15.5828C4 16.1549 4.65666 16.4585 5.07206 16.0784C5.31612 15.8551 5.68388 15.8551 5.92793 16.0784L6.25 16.3731C6.67772 16.7645 7.32227 16.7645 7.75 16.3731C8.17772 15.9817 8.82227 15.9817 9.25 16.3731C9.67772 16.7645 10.3223 16.7645 10.75 16.3731C11.1777 15.9817 11.8223 15.9817 12.25 16.3731C12.6777 16.7645 13.3223 16.7645 13.75 16.3731L14.0721 16.0784C14.3161 15.8551 14.6839 15.8551 14.9279 16.0784C15.3433 16.4585 16 16.1549 16 15.5828V6.24669C16 5.45135 16 5.05368 15.8947 4.73295C15.695 4.12477 15.2312 3.64728 14.6404 3.44172C14.3289 3.33331 13.9426 3.33331 13.17 3.33331Z" fill="white"/>
<path d="M8.33325 8.93331L9.28563 9.99998L11.6666 7.33331" stroke="#4E55F4" stroke-linecap="round" stroke-linejoin="round"/>
<path d="M7 12.3333H13" stroke="#4E55F4" stroke-linecap="round"/>
</svg>
