<svg width="56" height="56" viewBox="0 0 56 56" fill="none" xmlns="http://www.w3.org/2000/svg">
<circle cx="28" cy="28" r="27.5" fill="#4E55F5" stroke="#E6E9F4"/>
<path d="M33.625 37C34.2666 36.4297 35.2334 36.4297 35.875 37C36.3109 37.3875 37 37.078 37 36.4948V19.505C37 18.9218 36.3109 18.6123 35.875 18.9998C35.2334 19.5701 34.2666 19.5701 33.625 18.9998C32.9834 18.4295 32.0166 18.4295 31.375 18.9998C30.7334 19.5701 29.7666 19.5701 29.125 18.9998C28.4834 18.4295 27.5166 18.4295 26.875 18.9998C26.2334 19.5701 25.2666 19.5701 24.625 18.9998C23.9834 18.4295 23.0166 18.4295 22.375 18.9998C21.7334 19.5701 20.7666 19.5701 20.125 18.9998C19.6891 18.6123 19 18.9218 19 19.505V36.4948C19 37.078 19.6891 37.3875 20.125 37C20.7666 36.4297 21.7334 36.4297 22.375 37C23.0166 37.5703 23.9834 37.5703 24.625 37C25.2666 36.4297 26.2334 36.4297 26.875 37C27.5166 37.5703 28.4834 37.5703 29.125 37C29.7666 36.4297 30.7334 36.4297 31.375 37C32.0166 37.5703 32.9834 37.5703 33.625 37Z" stroke="white" stroke-width="1.5"/>
<path d="M23.5 31.5H32.5" stroke="white" stroke-width="1.5" stroke-linecap="round"/>
<path d="M23.5 28H32.5" stroke="white" stroke-width="1.5" stroke-linecap="round"/>
<path d="M23.5 24.5H32.5" stroke="white" stroke-width="1.5" stroke-linecap="round"/>
</svg>
