<svg width="66" height="66" viewBox="0 0 66 66" fill="none" xmlns="http://www.w3.org/2000/svg">
<circle cx="33" cy="33" r="32.5" stroke="#E6E9F4"/>
<path d="M23.001 33C23.001 29.2288 23.001 27.3431 24.1725 26.1716C25.3441 25 27.2297 25 31.001 25H35.001C38.7722 25 40.6578 25 41.8294 26.1716C43.001 27.3431 43.001 29.2288 43.001 33V35C43.001 38.7712 43.001 40.6569 41.8294 41.8284C40.6578 43 38.7722 43 35.001 43H31.001C27.2297 43 25.3441 43 24.1725 41.8284C23.001 40.6569 23.001 38.7712 23.001 35V33Z" stroke="#222322" stroke-width="1.5"/>
<path d="M28.001 25V23.5" stroke="#222322" stroke-width="1.5" stroke-linecap="round"/>
<path d="M38.001 25V23.5" stroke="#222322" stroke-width="1.5" stroke-linecap="round"/>
<path d="M23.501 30H42.501" stroke="#222322" stroke-width="1.5" stroke-linecap="round"/>
<path d="M39.001 38C39.001 38.5523 38.5533 39 38.001 39C37.4487 39 37.001 38.5523 37.001 38C37.001 37.4477 37.4487 37 38.001 37C38.5533 37 39.001 37.4477 39.001 38Z" fill="#222322"/>
<path d="M39.001 34C39.001 34.5523 38.5533 35 38.001 35C37.4487 35 37.001 34.5523 37.001 34C37.001 33.4477 37.4487 33 38.001 33C38.5533 33 39.001 33.4477 39.001 34Z" fill="#222322"/>
<path d="M34.001 38C34.001 38.5523 33.5533 39 33.001 39C32.4487 39 32.001 38.5523 32.001 38C32.001 37.4477 32.4487 37 33.001 37C33.5533 37 34.001 37.4477 34.001 38Z" fill="#222322"/>
<path d="M34.001 34C34.001 34.5523 33.5533 35 33.001 35C32.4487 35 32.001 34.5523 32.001 34C32.001 33.4477 32.4487 33 33.001 33C33.5533 33 34.001 33.4477 34.001 34Z" fill="#222322"/>
<path d="M29.001 38C29.001 38.5523 28.5533 39 28.001 39C27.4487 39 27.001 38.5523 27.001 38C27.001 37.4477 27.4487 37 28.001 37C28.5533 37 29.001 37.4477 29.001 38Z" fill="#222322"/>
<path d="M29.001 34C29.001 34.5523 28.5533 35 28.001 35C27.4487 35 27.001 34.5523 27.001 34C27.001 33.4477 27.4487 33 28.001 33C28.5533 33 29.001 33.4477 29.001 34Z" fill="#222322"/>
</svg>
