<svg width="69" height="69" viewBox="0 0 69 69" fill="none" xmlns="http://www.w3.org/2000/svg">
<rect x="0.5" y="0.5" width="68" height="68" rx="34" fill="#4E55F5"/>
<rect x="0.5" y="0.5" width="68" height="68" rx="34" stroke="#E6E9F4"/>
<path d="M24.0691 39.2393C21.3279 39.2393 19.6189 37.2568 19.6189 34.0781V34.0645C19.6189 30.8789 21.3211 28.8965 24.0623 28.8965C26.2361 28.8965 27.9041 30.2705 28.1638 32.2324L28.157 32.2666H26.6394V32.2461C26.3523 31.0361 25.3611 30.25 24.0623 30.25C22.2918 30.25 21.1843 31.7197 21.1843 34.0645V34.0781C21.1843 36.416 22.2918 37.8857 24.0691 37.8857C25.3748 37.8857 26.3523 37.1885 26.6326 36.0742L26.6462 36.0469H28.1638V36.0879C27.8767 37.9814 26.2703 39.2393 24.0691 39.2393ZM29.9404 39V29.1357H33.8301C35.8535 29.1357 37.1113 30.3115 37.1113 32.1436V32.1572C37.1113 33.4834 36.4004 34.5635 35.1973 34.9668L37.4121 39H35.6416L33.6318 35.2061H31.4717V39H29.9404ZM31.4717 33.9619H33.6797C34.8555 33.9619 35.5391 33.3193 35.5391 32.1982V32.1846C35.5391 31.0908 34.8145 30.4209 33.6318 30.4209H31.4717V33.9619ZM39.052 39V29.1357H40.8157L43.9602 37.0039H44.0696L47.2141 29.1357H48.9778V39H47.5832V31.7607H47.4807L44.5823 39H43.4475L40.5559 31.7607H40.4465V39H39.052Z" fill="white"/>
</svg>
