<svg width="69" height="69" viewBox="0 0 69 69" fill="none" xmlns="http://www.w3.org/2000/svg">
<circle cx="34.5" cy="34.5" r="34" stroke="#E6E9F4"/>
<path d="M25 34C25 29.286 25 26.9289 26.4645 25.4645C27.9289 24 30.286 24 35 24C39.714 24 42.0711 24 43.5355 25.4645C45 26.9289 45 29.286 45 34C45 38.714 45 41.0711 43.5355 42.5355C42.0711 44 39.714 44 35 44C30.286 44 27.9289 44 26.4645 42.5355C25 41.0711 25 38.714 25 34Z" stroke="#222322" stroke-width="1.5"/>
<path d="M30 28C30 28.5523 29.5523 29 29 29C28.4477 29 28 28.5523 28 28C28 27.4477 28.4477 27 29 27C29.5523 27 30 27.4477 30 28Z" fill="#222322"/>
<path d="M33 28C33 28.5523 32.5523 29 32 29C31.4477 29 31 28.5523 31 28C31 27.4477 31.4477 27 32 27C32.5523 27 33 27.4477 33 28Z" fill="#222322"/>
<path d="M36 28C36 28.5523 35.5523 29 35 29C34.4477 29 34 28.5523 34 28C34 27.4477 34.4477 27 35 27C35.5523 27 36 27.4477 36 28Z" fill="#222322"/>
<path d="M25 31.5H45" stroke="#222322" stroke-width="1.5" stroke-linecap="round"/>
<path d="M32 43L32 32" stroke="#222322" stroke-width="1.5" stroke-linecap="round"/>
</svg>
