<svg width="66" height="66" viewBox="0 0 66 66" fill="none" xmlns="http://www.w3.org/2000/svg">
<circle cx="33" cy="33" r="32.5" fill="white" stroke="#E6E9F4"/>
<g clip-path="url(#clip0_1_176)">
<path d="M33.2288 31.3929V35.5422H38.9948C38.7416 36.8766 37.9818 38.0064 36.8422 38.7661L40.3194 41.4641C42.3453 39.5941 43.5141 36.8474 43.5141 33.5845C43.5141 32.8248 43.4459 32.0943 43.3193 31.3931L33.2288 31.3929Z" fill="#4285F4"/>
<path d="M27.2242 35.3802L26.44 35.9806L23.6641 38.1428C25.427 41.6394 29.0403 44.055 33.2284 44.055C36.1211 44.055 38.5463 43.1005 40.319 41.4642L36.8419 38.7662C35.8874 39.409 34.6699 39.7987 33.2284 39.7987C30.4428 39.7987 28.076 37.9189 27.2286 35.3864L27.2242 35.3802Z" fill="#34A853"/>
<path d="M23.6644 28.5393C22.9339 29.9808 22.5151 31.6074 22.5151 33.341C22.5151 35.0747 22.9339 36.7013 23.6644 38.1428C23.6644 38.1525 27.2293 35.3766 27.2293 35.3766C27.015 34.7338 26.8883 34.052 26.8883 33.3409C26.8883 32.6298 27.015 31.9481 27.2293 31.3052L23.6644 28.5393Z" fill="#FBBC05"/>
<path d="M33.2286 26.8933C34.8065 26.8933 36.2091 27.4387 37.3292 28.4907L40.3972 25.4226C38.5369 23.6889 36.1214 22.6272 33.2286 22.6272C29.0405 22.6272 25.427 25.033 23.6641 28.5394L27.2288 31.3055C28.0762 28.7731 30.443 26.8933 33.2286 26.8933Z" fill="#EA4335"/>
</g>
<defs>
<clipPath id="clip0_1_176">
<rect width="21.4279" height="21.4279" fill="white" transform="translate(22.5151 22.6271)"/>
</clipPath>
</defs>
</svg>
