<svg width="69" height="69" viewBox="0 0 69 69" fill="none" xmlns="http://www.w3.org/2000/svg">
<rect x="0.5" y="0.5" width="68" height="68" rx="34" fill="#4E55F5"/>
<rect x="0.5" y="0.5" width="68" height="68" rx="34" stroke="#E6E9F4"/>
<path d="M16.2663 39V29.1357H17.7975V33.3057H22.8629V29.1357H24.3873V39H22.8629V34.6318H17.7975V39H16.2663ZM29.5956 39.1436C27.4149 39.1436 26.0819 37.6875 26.0819 35.2949V35.2812C26.0819 32.8955 27.4218 31.4326 29.5956 31.4326C31.7626 31.4326 33.1024 32.8887 33.1024 35.2812V35.2949C33.1024 37.6875 31.7694 39.1436 29.5956 39.1436ZM29.5956 37.9062C30.8671 37.9062 31.5917 36.9355 31.5917 35.2949V35.2812C31.5917 33.6338 30.8671 32.6699 29.5956 32.6699C28.3173 32.6699 27.5995 33.6338 27.5995 35.2812V35.2949C27.5995 36.9424 28.3173 37.9062 29.5956 37.9062ZM34.6329 39V31.5762H36.1163V32.7178H36.2257C36.5538 31.9043 37.2784 31.4326 38.2491 31.4326C39.2609 31.4326 39.9786 31.959 40.3068 32.7588H40.423C40.7989 31.959 41.6534 31.4326 42.6857 31.4326C44.1827 31.4326 45.0577 32.335 45.0577 33.8799V39H43.5812V34.2354C43.5812 33.21 43.1163 32.7041 42.1456 32.7041C41.2023 32.7041 40.5802 33.4082 40.5802 34.3037V39H39.1036V34.085C39.1036 33.2373 38.5499 32.7041 37.6749 32.7041C36.7794 32.7041 36.1163 33.4697 36.1163 34.4404V39H34.6329ZM50.0062 39.1436C47.8324 39.1436 46.5199 37.6602 46.5199 35.3086V35.3018C46.5199 32.9844 47.8597 31.4326 49.931 31.4326C52.0023 31.4326 53.2738 32.9297 53.2738 35.1582V35.6777H48.0101C48.0375 37.0996 48.8168 37.9268 50.0404 37.9268C50.9906 37.9268 51.558 37.4551 51.7357 37.0723L51.763 37.0176L53.1918 37.0107L53.1781 37.0723C52.932 38.0498 51.9066 39.1436 50.0062 39.1436ZM49.9379 32.6494C48.9261 32.6494 48.1605 33.3398 48.0306 34.6182H51.8041C51.6879 33.292 50.9427 32.6494 49.9379 32.6494Z" fill="white"/>
</svg>
