<svg width="69" height="69" viewBox="0 0 69 69" fill="none" xmlns="http://www.w3.org/2000/svg">
<circle cx="34.5" cy="34.5" r="34" stroke="#E6E9F4"/>
<path d="M25 34.2039C25 31.9155 25 30.7713 25.5192 29.8227C26.0384 28.8742 26.9869 28.2855 28.884 27.1081L30.884 25.8669C32.8894 24.6223 33.8921 24 35 24C36.1079 24 37.1106 24.6223 39.116 25.8669L41.116 27.1081C43.0131 28.2855 43.9616 28.8742 44.4808 29.8227C45 30.7713 45 31.9155 45 34.2039V35.725C45 39.6258 45 41.5763 43.8284 42.7881C42.6569 44 40.7712 44 37 44H33C29.2288 44 27.3431 44 26.1716 42.7881C25 41.5763 25 39.6258 25 35.725V34.2039Z" stroke="#222322" stroke-width="1.5"/>
<path d="M32 38C32.8504 38.6303 33.8846 39 35 39C36.1154 39 37.1496 38.6303 38 38" stroke="#222322" stroke-width="1.5" stroke-linecap="round"/>
</svg>
