<svg width="69" height="69" viewBox="0 0 69 69" fill="none" xmlns="http://www.w3.org/2000/svg">
<circle cx="34.5" cy="34.5" r="34" stroke="#E6E9F4"/>
<path d="M25 34C25 29.286 25 26.9289 26.4645 25.4645C27.9289 24 30.286 24 35 24C39.714 24 42.0711 24 43.5355 25.4645C45 26.9289 45 29.286 45 34" stroke="#222322" stroke-width="1.5"/>
<path d="M25 36C25 33.1997 25 31.7996 25.545 30.73C26.0243 29.7892 26.7892 29.0243 27.73 28.545C28.7996 28 30.1997 28 33 28H37C39.8003 28 41.2004 28 42.27 28.545C43.2108 29.0243 43.9757 29.7892 44.455 30.73C45 31.7996 45 33.1997 45 36C45 38.8003 45 40.2004 44.455 41.27C43.9757 42.2108 43.2108 42.9757 42.27 43.455C41.2004 44 39.8003 44 37 44H33C30.1997 44 28.7996 44 27.73 43.455C26.7892 42.9757 26.0243 42.2108 25.545 41.27C25 40.2004 25 38.8003 25 36Z" stroke="#222322" stroke-width="1.5"/>
<path d="M32.5 36.4L33.9286 38L37.5 34" stroke="#222322" stroke-width="1.5" stroke-linecap="round" stroke-linejoin="round"/>
</svg>
