<svg width="69" height="69" viewBox="0 0 69 69" fill="none" xmlns="http://www.w3.org/2000/svg">
<rect x="0.5" y="0.5" width="68" height="68" rx="34" fill="#4E55F5"/>
<rect x="0.5" y="0.5" width="68" height="68" rx="34" stroke="#E6E9F4"/>
<path d="M8.77555 39V29.1357H12.6173C14.5519 29.1357 15.8918 30.4346 15.8918 32.3691V32.3828C15.8918 34.3105 14.5519 35.6299 12.6173 35.6299H10.3068V39H8.77555ZM12.2345 30.4277H10.3068V34.3447H12.2345C13.5607 34.3447 14.3332 33.627 14.3332 32.3896V32.376C14.3332 31.1455 13.5607 30.4277 12.2345 30.4277ZM17.4564 39V31.5762H18.9398V32.6973H19.0492C19.3158 31.9111 20.0063 31.4463 20.9975 31.4463C21.2367 31.4463 21.4965 31.4805 21.6469 31.5146V32.8818C21.3803 32.8271 21.1273 32.793 20.8471 32.793C19.7123 32.793 18.9398 33.4902 18.9398 34.5635V39H17.4564ZM25.775 39.1436C23.5944 39.1436 22.2614 37.6875 22.2614 35.2949V35.2812C22.2614 32.8955 23.6012 31.4326 25.775 31.4326C27.942 31.4326 29.2819 32.8887 29.2819 35.2812V35.2949C29.2819 37.6875 27.9489 39.1436 25.775 39.1436ZM25.775 37.9062C27.0465 37.9062 27.7711 36.9355 27.7711 35.2949V35.2812C27.7711 33.6338 27.0465 32.6699 25.775 32.6699C24.4967 32.6699 23.7789 33.6338 23.7789 35.2812V35.2949C23.7789 36.9424 24.4967 37.9062 25.775 37.9062ZM31.5712 30.25C31.0585 30.25 30.6415 29.833 30.6415 29.3271C30.6415 28.8145 31.0585 28.3975 31.5712 28.3975C32.0839 28.3975 32.5009 28.8145 32.5009 29.3271C32.5009 29.833 32.0839 30.25 31.5712 30.25ZM29.9032 41.543C29.7938 41.543 29.6639 41.5361 29.5751 41.5361V40.3193C29.6434 40.3193 29.7118 40.3193 29.7802 40.3193C30.5389 40.3193 30.8329 40.0596 30.8329 39.3145V31.5762H32.3095V39.3213C32.3095 40.8457 31.5165 41.543 29.9032 41.543ZM37.3536 39.1436C35.1798 39.1436 33.8673 37.6602 33.8673 35.3086V35.3018C33.8673 32.9844 35.2071 31.4326 37.2784 31.4326C39.3497 31.4326 40.6212 32.9297 40.6212 35.1582V35.6777H35.3575C35.3849 37.0996 36.1642 37.9268 37.3878 37.9268C38.338 37.9268 38.9054 37.4551 39.0831 37.0723L39.1105 37.0176L40.5392 37.0107L40.5255 37.0723C40.2794 38.0498 39.254 39.1436 37.3536 39.1436ZM37.2853 32.6494C36.2736 32.6494 35.5079 33.3398 35.378 34.6182H39.1515C39.0353 33.292 38.2902 32.6494 37.2853 32.6494ZM45.2689 39.1436C43.1019 39.1436 41.7757 37.667 41.7757 35.2676V35.2539C41.7757 32.9023 43.0951 31.4326 45.2621 31.4326C47.1283 31.4326 48.2425 32.4854 48.4476 33.9277V33.9619L47.0257 33.9688L47.0189 33.9482C46.8548 33.2168 46.2533 32.6699 45.2689 32.6699C44.0316 32.6699 43.2865 33.6543 43.2865 35.2539V35.2676C43.2865 36.9082 44.0453 37.9062 45.2689 37.9062C46.1986 37.9062 46.7728 37.4824 47.0121 36.6826L47.0257 36.6484H48.4476L48.4339 36.71C48.1673 38.1523 47.1078 39.1436 45.2689 39.1436ZM52.8014 39.0479C51.1676 39.0479 50.4977 38.4736 50.4977 37.0449V32.7451H49.3355V31.5762H50.4977V29.7031H52.0084V31.5762H53.6012V32.7451H52.0084V36.6895C52.0084 37.4893 52.3092 37.8174 53.0406 37.8174C53.2662 37.8174 53.3961 37.8105 53.6012 37.79V38.9727C53.3619 39.0137 53.0885 39.0479 52.8014 39.0479ZM57.6815 39.1436C55.8905 39.1436 54.7557 38.3027 54.6121 37.0586V37.0518H56.0955L56.1024 37.0586C56.287 37.6191 56.827 37.9951 57.7088 37.9951C58.6248 37.9951 59.2606 37.5781 59.2606 36.9697V36.9561C59.2606 36.4912 58.912 36.1768 58.0506 35.9785L56.868 35.7051C55.4666 35.3838 54.8172 34.748 54.8172 33.6611V33.6543C54.8172 32.3623 56.0204 31.4326 57.702 31.4326C59.3973 31.4326 60.4842 32.2803 60.6141 33.4902V33.4971H59.1991V33.4834C59.0555 32.9639 58.5291 32.5742 57.6952 32.5742C56.8817 32.5742 56.2938 32.9775 56.2938 33.5723V33.5859C56.2938 34.0508 56.6356 34.3379 57.4696 34.5361L58.6454 34.8027C60.0741 35.1377 60.7577 35.7461 60.7577 36.8193V36.833C60.7577 38.207 59.4452 39.1436 57.6815 39.1436Z" fill="white"/>
</svg>
