<svg width="66" height="66" viewBox="0 0 66 66" fill="none" xmlns="http://www.w3.org/2000/svg">
<circle cx="33" cy="33" r="32.5" stroke="#E6E9F4"/>
<path d="M28.8431 24.8021C30.8718 23.6007 31.8862 23 33 23C34.1138 23 35.1282 23.6007 37.1569 24.8021L37.8431 25.2085C39.8718 26.4099 40.8862 27.0106 41.4431 28C42 28.9894 42 30.1908 42 32.5937V33.4063C42 35.8092 42 37.0106 41.4431 38C40.8862 38.9894 39.8718 39.5901 37.8431 40.7915L37.1569 41.1979C35.1282 42.3993 34.1138 43 33 43C31.8862 43 30.8718 42.3993 28.8431 41.1979L28.1569 40.7915C26.1282 39.5901 25.1138 38.9894 24.5569 38C24 37.0106 24 35.8092 24 33.4063V32.5937C24 30.1908 24 28.9894 24.5569 28C25.1138 27.0106 26.1282 26.4099 28.1569 25.2085L28.8431 24.8021Z" stroke="#222322" stroke-width="1.5"/>
<circle cx="33" cy="33" r="3" stroke="#222322" stroke-width="1.5"/>
</svg>
