<svg width="69" height="69" viewBox="0 0 69 69" fill="none" xmlns="http://www.w3.org/2000/svg">
<rect x="0.5" y="0.5" width="68" height="68" rx="34" fill="#4E55F5"/>
<rect x="0.5" y="0.5" width="68" height="68" rx="34" stroke="#E6E9F4"/>
<path d="M16.0756 39.2393C13.8471 39.2393 12.4184 38.1113 12.2816 36.4502L12.2748 36.3613H13.7787L13.7855 36.4365C13.8676 37.332 14.8178 37.9062 16.1371 37.9062C17.3949 37.9062 18.2904 37.2773 18.2904 36.3613V36.3545C18.2904 35.5957 17.7572 35.1035 16.4516 34.8232L15.3715 34.5908C13.3686 34.167 12.5072 33.2373 12.5072 31.7812V31.7744C12.5141 30.0723 13.9906 28.8965 16.0824 28.8965C18.1742 28.8965 19.5414 30.0791 19.6508 31.6104L19.6576 31.7061H18.1742L18.1605 31.6172C18.0307 30.8105 17.2582 30.2227 16.0619 30.2295C14.9066 30.2295 14.0521 30.7695 14.0521 31.6992V31.7061C14.0521 32.4375 14.5717 32.916 15.85 33.1895L16.9232 33.4287C18.9945 33.873 19.8422 34.707 19.8422 36.1699V36.1768C19.8422 38.0635 18.3725 39.2393 16.0756 39.2393ZM21.5163 39V28.6641H22.9996V32.7041H23.109C23.4713 31.9111 24.1823 31.4326 25.2623 31.4326C26.9235 31.4326 27.8395 32.4238 27.8395 34.1943V39H26.3629V34.543C26.3629 33.3125 25.8502 32.7041 24.7633 32.7041C23.6764 32.7041 22.9996 33.4492 22.9996 34.6455V39H21.5163ZM32.8153 39.1436C30.6346 39.1436 29.3016 37.6875 29.3016 35.2949V35.2812C29.3016 32.8955 30.6415 31.4326 32.8153 31.4326C34.9823 31.4326 36.3221 32.8887 36.3221 35.2812V35.2949C36.3221 37.6875 34.9891 39.1436 32.8153 39.1436ZM32.8153 37.9062C34.0868 37.9062 34.8114 36.9355 34.8114 35.2949V35.2812C34.8114 33.6338 34.0868 32.6699 32.8153 32.6699C31.537 32.6699 30.8192 33.6338 30.8192 35.2812V35.2949C30.8192 36.9424 31.537 37.9062 32.8153 37.9062ZM40.9972 39.1436C38.8165 39.1436 37.4835 37.6875 37.4835 35.2949V35.2812C37.4835 32.8955 38.8234 31.4326 40.9972 31.4326C43.1642 31.4326 44.504 32.8887 44.504 35.2812V35.2949C44.504 37.6875 43.171 39.1436 40.9972 39.1436ZM40.9972 37.9062C42.2687 37.9062 42.9933 36.9355 42.9933 35.2949V35.2812C42.9933 33.6338 42.2687 32.6699 40.9972 32.6699C39.7189 32.6699 39.0011 33.6338 39.0011 35.2812V35.2949C39.0011 36.9424 39.7189 37.9062 40.9972 37.9062ZM48.8373 39.0479C47.2035 39.0479 46.5336 38.4736 46.5336 37.0449V32.7451H45.3714V31.5762H46.5336V29.7031H48.0443V31.5762H49.6371V32.7451H48.0443V36.6895C48.0443 37.4893 48.3451 37.8174 49.0765 37.8174C49.3021 37.8174 49.432 37.8105 49.6371 37.79V38.9727C49.3978 39.0137 49.1244 39.0479 48.8373 39.0479ZM53.7174 39.1436C51.9264 39.1436 50.7916 38.3027 50.648 37.0586V37.0518H52.1314L52.1383 37.0586C52.3229 37.6191 52.8629 37.9951 53.7447 37.9951C54.6607 37.9951 55.2965 37.5781 55.2965 36.9697V36.9561C55.2965 36.4912 54.9479 36.1768 54.0865 35.9785L52.9039 35.7051C51.5025 35.3838 50.8531 34.748 50.8531 33.6611V33.6543C50.8531 32.3623 52.0563 31.4326 53.7379 31.4326C55.4332 31.4326 56.5201 32.2803 56.65 33.4902V33.4971H55.235V33.4834C55.0914 32.9639 54.565 32.5742 53.7311 32.5742C52.9176 32.5742 52.3297 32.9775 52.3297 33.5723V33.5859C52.3297 34.0508 52.6715 34.3379 53.5055 34.5361L54.6813 34.8027C56.11 35.1377 56.7936 35.7461 56.7936 36.8193V36.833C56.7936 38.207 55.4811 39.1436 53.7174 39.1436Z" fill="white"/>
</svg>
