<svg width="69" height="69" viewBox="0 0 69 69" fill="none" xmlns="http://www.w3.org/2000/svg">
<circle cx="34.5" cy="34.5" r="34" stroke="#E6E9F4"/>
<path d="M40 31.4999L40.6584 31.1708C42.6042 30.1978 43.5772 29.7114 44.2886 30.151C45 30.5907 45 31.6785 45 33.8541V34.1458C45 36.3214 45 37.4092 44.2886 37.8489C43.5772 38.2885 42.6042 37.8021 40.6584 36.8291L40 36.4999V31.4999Z" stroke="#222322" stroke-width="1.5"/>
<path d="M36.5607 29.4393C37.1464 30.0251 37.1464 30.9749 36.5607 31.5607C35.9749 32.1464 35.0251 32.1464 34.4393 31.5607C33.8536 30.9749 33.8536 30.0251 34.4393 29.4393C35.0251 28.8536 35.9749 28.8536 36.5607 29.4393Z" stroke="#222322" stroke-width="1.5"/>
<path d="M25 33.5C25 30.2125 25 28.5688 25.908 27.4624C26.0742 27.2599 26.2599 27.0742 26.4624 26.908C27.5688 26 29.2125 26 32.5 26C35.7875 26 37.4312 26 38.5376 26.908C38.7401 27.0742 38.9258 27.2599 39.092 27.4624C40 28.5688 40 30.2125 40 33.5V34.5C40 37.7875 40 39.4312 39.092 40.5376C38.9258 40.7401 38.7401 40.9258 38.5376 41.092C37.4312 42 35.7875 42 32.5 42C29.2125 42 27.5688 42 26.4624 41.092C26.2599 40.9258 26.0742 40.7401 25.908 40.5376C25 39.4312 25 37.7875 25 34.5V33.5Z" stroke="#222322" stroke-width="1.5"/>
</svg>
