<svg width="75" height="69" viewBox="0 0 75 69" fill="none" xmlns="http://www.w3.org/2000/svg">
<path fill-rule="evenodd" clip-rule="evenodd" d="M73.1885 43.872H57.9871C52.4519 43.872 47.9634 39.3834 47.9634 33.8445C47.9634 28.3093 52.4519 23.8207 57.9871 23.8207H73.0693" fill="white"/>
<path d="M73.1885 43.872H57.9871C52.4519 43.872 47.9634 39.3834 47.9634 33.8445C47.9634 28.3093 52.4519 23.8207 57.9871 23.8207H73.0693" stroke="white" stroke-width="1.40802" stroke-linecap="round" stroke-linejoin="round"/>
<path d="M59.6982 33.6154H58.536" stroke="#4E55F5" stroke-width="1.40802" stroke-linecap="round" stroke-linejoin="round"/>
<path d="M20.1338 18.325H36.0131" stroke="white" stroke-width="1.40802" stroke-linecap="round" stroke-linejoin="round"/>
<path fill-rule="evenodd" clip-rule="evenodd" d="M1 34.3976C1 9.34754 10.0925 1 37.3775 1C64.6588 1 73.7514 9.34754 73.7514 34.3976C73.7514 59.444 64.6588 67.7952 37.3775 67.7952C10.0925 67.7952 1 59.444 1 34.3976Z" stroke="white" stroke-width="1.40802" stroke-linecap="round" stroke-linejoin="round"/>
</svg>
